<?xml version="1.0" encoding="UTF-8"?>
<svg id="Layer_1" data-name="Layer 1" xmlns="http://www.w3.org/2000/svg" viewBox="0 0 93.54 68.06">
  <path d="m4.4,31.58l.77-4.16h0c.31-1.7,1.95-2.83,3.65-2.52l15.79,2.91c2.24-2.32,4.9-4.21,7.83-5.57-.16-.4-.24-.83-.24-1.26,0-.97.37-1.91,1.06-2.6-.29-1.37.16-2.8,1.19-3.75-.18-.17-.37-.34-.56-.51-1.22-1-2.3-2.17-3.2-3.47-2.62-4.31-.15-6.75.66-7.4,2.31-1.82,6.14-1.92,7.88-.19h0c.26.26.48.56.65.89C41.69,1.48,44.14-.22,48.9.02c3.68.19,8.22,1.99,9.51,5.48.48,1.29.83,3.9-2.18,6.75-.68.65-1.45,1.4-2.09,2.13.76.54,1.29,1.36,1.48,2.27.14.56.14,1.15.02,1.71.68.69,1.06,1.63,1.06,2.6,0,.44-.08.87-.24,1.28.36.16.73.34,1.11.54h0c1.43-2.09,3.26-3.88,5.37-5.27.53-.35,1.22-.32,1.72.07l2.45,1.92c.4-.18.8-.35,1.22-.5l.38-3.09c.08-.63.55-1.14,1.17-1.27,2.61-.52,5.29-.52,7.89,0,.62.13,1.09.63,1.17,1.27l.38,3.09c.41.15.82.32,1.22.5l2.45-1.92c.5-.4,1.2-.42,1.72-.07,2.21,1.46,4.11,3.36,5.57,5.58.35.53.32,1.22-.07,1.72l-1.92,2.45c.18.4.35.8.5,1.22l3.09.38h0c.63.08,1.14.55,1.27,1.17.53,2.6.53,5.29,0,7.89-.13.62-.64,1.09-1.27,1.17l-3.09.38c-.15.41-.32.81-.5,1.22l1.92,2.45c.39.5.42,1.19.07,1.72-1.47,2.22-3.36,4.12-5.58,5.58-.53.35-1.22.32-1.72-.07l-2.45-1.92c-.4.19-.8.35-1.22.5l-.38,3.09c-.08.63-.55,1.13-1.17,1.26-1.3.26-2.62.4-3.95.4-.66,0-1.32-.04-1.97-.1h0c-.99,5.57-4.89,10.19-10.22,12.1-5.06,2-11.24,2.27-17.17,2.27-3.13.04-6.26-.11-9.37-.44-.51.34-1.11.52-1.73.52H12.93c-1.73,0-3.13-1.4-3.14-3.13v-4.24c0-.07,0-.13.01-.19h-1.19c-1.73,0-3.14-1.41-3.14-3.14v-4.24c0-1.73,1.4-3.13,3.14-3.14h1.19c0-.06-.01-.13-.01-.19v-4.24c0-1.73,1.4-3.13,3.14-3.13h4.03c.32-1.74.8-3.45,1.44-5.1l-11.5-2.12h0c-1.7-.32-2.83-1.95-2.52-3.65h0Zm8.34,18.24h0c0,.1.08.18.19.19h20.42c.1,0,.18-.09.19-.19v-4.24c0-.1-.09-.19-.19-.19H12.93c-.11,0-.19.09-.19.19v4.24Zm16.29,7.74c.1,0,.18-.09.19-.19v-4.23c0-.1-.09-.19-.19-.19H8.61c-.11,0-.19.09-.19.19v4.24c0,.1.09.19.19.19h20.42Zm4.5,3.14c0-.11-.09-.19-.19-.19H12.93c-.11,0-.19.09-.19.19v4.24h0c0,.1.08.18.19.19h20.42c.1,0,.18-.09.19-.19v-4.23Zm34.98-27.39c.97,1.64,1.77,3.36,2.38,5.16.87.57,1.88.87,2.91.86,2.1,0,4.01-1.23,4.87-3.14.87-1.91.53-4.15-.86-5.73-1.39-1.58-3.57-2.2-5.58-1.58-2.01.61-3.47,2.35-3.73,4.43h0ZM35.86,11.92c.68.59,1.33,1.23,1.95,1.89h13.07,0c.98-1.35,2.1-2.58,3.33-3.7,1.36-1.3,1.85-2.51,1.45-3.6-.67-1.83-3.71-3.39-6.9-3.56-4.47-.23-5.91,1.41-7.9,4.96-.28.5-.83.79-1.4.74-.57-.05-1.07-.42-1.27-.96-.14-.38-.26-.72-.37-1.03h0c-.15-.54-.37-1.06-.65-1.54-1.3-.62-2.84-.46-3.98.41-.36.28-1.45,1.14.03,3.56h0c.76,1.05,1.66,2,2.66,2.82h0Zm-7.66,16.54l.7.14c1.7.32,2.82,1.95,2.51,3.65l-.77,4.16c-.27,1.48-1.57,2.56-3.08,2.57-.19,0-.39-.02-.57-.05l-5.63-1.04h0c-.61,1.47-1.08,2.99-1.4,4.55h10.96c.84-6.41,6.06-11.36,12.51-11.85,6.45-.49,12.36,3.63,14.14,9.84,1.79,6.22-1.04,12.84-6.76,15.85-5.72,3.01-12.78,1.6-16.9-3.4-.19.04-.38.06-.57.06h-1.19c0,.07.01.13.01.19v4.24c0,.07,0,.13-.01.19h1.19c1.73,0,3.13,1.41,3.13,3.14v4.04c2.75.27,5.53.31,7.97.31,11.55,0,22.97-1.02,24.71-13.19,1.14-6.91-.62-13.97-4.86-19.54-2.81-3.89-6.79-6.76-11.36-8.19h-17c-2.88.84-5.53,2.33-7.75,4.35h0Zm18.53,18.77c0,.69-.95,1.47-2.28,1.47-1.26,0-2.28-.69-2.28-1.55h0c0-.81-.66-1.47-1.47-1.47s-1.47.66-1.47,1.47c.09,2.14,1.65,3.93,3.76,4.31v.61c-.02.4.14.79.41,1.07.28.28.66.45,1.06.45s.78-.16,1.06-.45c.27-.29.43-.67.42-1.07v-.61c2.07-.38,3.62-2.12,3.75-4.23,0-2.58-2.6-3.58-4.7-4.39-1.12-.43-2.81-1.08-2.81-1.64,0-.69.95-1.47,2.28-1.47,1.26,0,2.28.69,2.28,1.55s.66,1.47,1.47,1.47,1.47-.66,1.47-1.47c-.09-2.14-1.65-3.93-3.75-4.31v-.62c.01-.4-.14-.79-.42-1.07-.28-.28-.66-.45-1.06-.45s-.78.16-1.06.45c-.27.28-.43.67-.41,1.07v.62c-2.08.38-3.63,2.13-3.76,4.23,0,2.58,2.61,3.58,4.7,4.39,1.12.43,2.81,1.08,2.81,1.64ZM7.29,32.1h0c0,.05,0,.1.03.14.03.05.07.07.12.08l20.08,3.7s.1,0,.14-.03c.04-.03.07-.07.08-.12l.77-4.16h0c.02-.1-.05-.2-.15-.22l-20.08-3.69h-.03c-.09,0-.17.07-.19.15l-.77,4.15Z"/>
  <path d="m0,25.96c0-.21.43-.11.63-.14.38-.04.6-.27.75-1.09.04-.19.11-.61.3-.61s.18.52.22.71c.16.82.4.9.78.95.21.02.58-.06.58.14s-.37.09-.58.12c-.38.04-.73.04-.78,1.15-.04.19-.03.61-.23.61s-.15-.48-.19-.67c-.23-.88-.35-1.07-.83-1.05-.21-.02-.67.1-.67-.11Z"/>
  <path d="m16.08,16.85c0-.35.71-.19,1.06-.23.64-.07,1-.46,1.26-1.83.06-.32.18-1.02.51-1.02s.31.87.37,1.19c.27,1.37.67,1.51,1.31,1.59.34.04.97-.11.97.24s-.62.16-.97.2c-.64.07-1.22.06-1.3,1.92-.06.32-.06,1.02-.39,1.02s-.25-.81-.31-1.13c-.38-1.48-.58-1.79-1.39-1.77-.35-.04-1.12.17-1.12-.18Z"/>
  <path d="m1.64,49.79c0-.35.7-.19,1.05-.23.63-.07.99-.45,1.25-1.81.06-.32.18-1.01.5-1.01s.3.86.37,1.18c.26,1.35.67,1.49,1.3,1.57.34.04.96-.11.96.24s-.61.16-.95.2c-.63.07-1.21.06-1.29,1.9-.06.32-.05,1.01-.38,1.01s-.25-.8-.31-1.12c-.38-1.46-.58-1.77-1.37-1.75-.34-.04-1.11.16-1.11-.18Z"/>
</svg>