<svg xmlns="http://www.w3.org/2000/svg" version="1.1" viewBox="-5.0 -10.0 110.0 135.0">
 <path d="m95.211 94.109c0 0.60938-0.48828 1.1016-1.1016 1.1016h-88.219c-0.60938 0-1.1016-0.48828-1.1016-1.1016v-88.219c0-0.60938 0.48828-1.1016 1.1016-1.1016 0.60938 0 1.1094 0.49219 1.1094 1.1016v87.109h87.109c0.60938 0 1.1016 0.5 1.1016 1.1094zm-80.941-12.238v-22.301c0-2.1289 1.7305-3.8594 3.8594-3.8594h8.9492v-37.859c0-3.8789 3.1602-7.0391 7.0391-7.0391h48.031c3.8789 0 7.0391 3.1602 7.0391 7.0391v48.031c0 3.8789-3.1602 7.0391-7.0391 7.0391h-37.859v8.9492c0 2.1289-1.7305 3.8594-3.8594 3.8594h-22.301c-2.1289 0-3.8594-1.7305-3.8594-3.8594zm15.012-26.16h11.16c2.1289 0 3.8594 1.7305 3.8594 3.8594v11.16h37.852c2.6602 0 4.8281-2.1719 4.8281-4.8281v-48.051c0-2.6602-2.1719-4.8281-4.8281-4.8281l-48.043-0.003907c-2.6602 0-4.8281 2.1719-4.8281 4.8281zm-12.812 26.16c0 0.91016 0.73828 1.6484 1.6484 1.6484h22.309c0.91016 0 1.6484-0.73828 1.6484-1.6484l0.003906-22.301c0-0.91016-0.73828-1.6484-1.6484-1.6484h-22.301c-0.91016 0-1.6484 0.73828-1.6484 1.6484v22.301zm31.711-28.961 6.7695 0.039063h0.011719c0.60937 0 1.1016-0.48828 1.1016-1.1016 0-0.60938-0.48828-1.1094-1.1016-1.1094l-4.1211-0.019531 28.578-28.578-0.019531 4.0781c0 0.60938 0.48828 1.1094 1.1016 1.1094h0.011719c0.60938 0 1.1016-0.48828 1.1016-1.1016l0.039063-6.7695c0-0.28906-0.10938-0.57031-0.32031-0.78125-0.21094-0.21094-0.48828-0.32812-0.78125-0.32812l-6.7695-0.039062h-0.011719c-0.60938 0-1.1016 0.48828-1.1016 1.1016 0 0.60938 0.48828 1.1094 1.1016 1.1094l4.1211 0.019531-28.582 28.59 0.019531-4.0781c0-0.60938-0.48828-1.1094-1.1016-1.1094h-0.011718c-0.60938 0-1.1016 0.48828-1.1016 1.1016l-0.039062 6.7695c0.003906 0.59766 0.49609 1.0977 1.1055 1.0977z"/>
<text x="0.0" y="117.5" font-size="5.0" font-weight="bold" font-family="Arbeit Regular, Helvetica, Arial-Unicode, Arial, Sans-serif" fill="#000000">Created by Omah Icon</text><text x="0.0" y="122.5" font-size="5.0" font-weight="bold" font-family="Arbeit Regular, Helvetica, Arial-Unicode, Arial, Sans-serif" fill="#000000">from Noun Project</text></svg>