<?xml version="1.0" encoding="UTF-8"?>
<svg id="group" xmlns="http://www.w3.org/2000/svg" viewBox="0 0 74.78 74.42">
  <defs>
    <style>
      .cls-1 {
        stroke-width: 1.5px;
      }

      .cls-1, .cls-2 {
        fill: none;
        stroke: #000;
        stroke-miterlimit: 10;
      }

      .cls-2 {
        stroke-width: 1.25px;
      }
    </style>
  </defs>
  <path id="bar" d="m1.83,72.56h.73c23.49,0,46.98,0,70.47,0,.23,0,.46,0,.68.05.46.11.74.53.69.99-.05.44-.38.76-.84.81-.18.02-.36.01-.54.01-23.88,0-47.76,0-71.65,0-.2,0-.39,0-.59-.01-.47-.05-.76-.37-.79-.84,0-.15,0-.29,0-.44,0-23.95,0-47.89,0-71.84,0-.15,0-.29,0-.44C.04.36.38.03.85,0c.47-.02.87.27.94.74.04.22.03.45.03.68,0,23.44,0,46.88,0,70.33,0,.24,0,.49,0,.81Z"/>
  <path id="small" class="cls-2" d="m31.71,67.01H11.1c-1.41,0-2.56-1.15-2.56-2.56v-20.62c0-1.41,1.15-2.56,2.56-2.56h15.26v2.29c.07,5.19.86,7.08,6.91,6.92h1.01s0,13.97,0,13.97c0,1.41-1.15,2.56-2.56,2.56Z"/>
  <rect id="big" class="cls-1" x="26.36" y="2.81" width="47.67" height="47.67" rx="4.74" ry="4.74"/>
  <path id="arrow" d="m66.24,14.11c0,.96,0,1.91,0,2.87,0,.52-.43.92-.96.91-.52-.01-.91-.44-.9-.96,0-1.09,0-2.18,0-3.27,0-.02-.01-.04-.02-.06-.03.02-.07.04-.1.07-2.09,2.08-4.17,4.17-6.26,6.25-5.84,5.84-11.68,11.67-17.52,17.51-.02.02-.04.06-.06.09.04,0,.08.02.12.02,1.13,0,2.25,0,3.38.03.48.01.84.45.84.94,0,.47-.37.9-.84.9-1.97,0-3.93,0-5.9-.03-.5,0-.83-.44-.83-1.02,0-1.87.02-3.75.04-5.62,0-.52.44-.89,1-.87.49.02.87.44.87.94,0,1.08,0,2.16,0,3.24,0,.03,0,.06.01.09.03-.02.05-.03.08-.05,7.92-7.91,15.84-15.83,23.76-23.75.03-.03.05-.07.08-.1-.04,0-.09-.02-.13-.02-1.06,0-2.12-.02-3.18-.03-.59,0-1.02-.4-1.02-.94,0-.54.43-.93,1.02-.93,1.85,0,3.69.01,5.54.02.61,0,1,.39,1,.99,0,.93,0,1.85,0,2.78h-.02Z"/>
</svg>