<?xml version="1.0" encoding="UTF-8"?>
<svg id="Layer_1" data-name="Layer 1" xmlns="http://www.w3.org/2000/svg" viewBox="0 0 90.42 90.42">
  <path d="m90.42,89.32c0,.61-.49,1.1-1.1,1.1H1.1c-.61,0-1.1-.49-1.1-1.1V1.1C0,.49.49,0,1.1,0s1.11.49,1.11,1.1v87.11h87.11c.61,0,1.1.5,1.1,1.11h0Zm-80.94-12.24v-22.3c0-2.13,1.73-3.86,3.86-3.86h8.95V13.06c0-3.88,3.16-7.04,7.04-7.04h48.03c3.88,0,7.04,3.16,7.04,7.04v48.03c0,3.88-3.16,7.04-7.04,7.04h-37.86v8.95c0,2.13-1.73,3.86-3.86,3.86H13.34c-2.13,0-3.86-1.73-3.86-3.86h0Zm15.01-26.16h11.16c2.13,0,3.86,1.73,3.86,3.86v11.16h37.85c2.66,0,4.83-2.17,4.83-4.83V13.06c0-2.66-2.17-4.83-4.83-4.83H29.32c-2.66,0-4.83,2.17-4.83,4.82v37.86Zm-12.81,26.16c0,.91.74,1.65,1.65,1.65h22.31c.91,0,1.65-.74,1.65-1.65v-22.3c0-.91-.73-1.65-1.64-1.65H13.34c-.91,0-1.65.74-1.65,1.65v22.3h-.01Zm31.71-28.96l6.77.04h.01c.61,0,1.1-.49,1.1-1.1s-.49-1.11-1.1-1.11l-4.12-.02,28.58-28.58-.02,4.08c0,.61.49,1.11,1.1,1.11h.01c.61,0,1.1-.49,1.1-1.1l.04-6.77c0-.29-.11-.57-.32-.78-.21-.21-.49-.33-.78-.33l-6.77-.04h-.01c-.61,0-1.1.49-1.1,1.1s.49,1.11,1.1,1.11l4.12.02-28.58,28.59.02-4.08c0-.61-.49-1.11-1.1-1.11h-.01c-.61,0-1.1.49-1.1,1.1l-.04,6.77c0,.6.5,1.1,1.11,1.1h0Z"/>
</svg>