<svg version="1.1" xmlns="http://www.w3.org/2000/svg" xmlns:xlink="http://www.w3.org/1999/xlink" width="1560" height="804"><defs/><g><path fill="none" stroke="#02063B" paint-order="fill stroke markers" d=" M 20 416.72376135582687 L 21 417.43040133549533 L 22 418.1327551917878 L 23 418.83062783092697 L 24 419.52382540388925 L 25 420.2121553602506 L 26 420.89542650167124 L 27 421.57344903500535 L 28 422.24603462502 L 29 422.9129964467093 L 30 423.57414923718915 L 31 424.2293093471578 L 32 424.87829479190856 L 33 425.5209253018797 L 34 426.15702237272825 L 35 426.7864093149136 L 36 427.4089113027766 L 37 428.0243554231009 L 38 428.6325707231439 L 39 429.23338825812175 L 40 429.82664113813814 L 41 430.41216457454095 L 42 430.9897959256961 L 43 431.5593747421646 L 44 432.120742811271 L 45 432.67374420105006 L 46 433.2182253035604 L 47 433.75403487755244 L 48 434.2810240904785 L 49 434.7990465598348 L 50 435.30795839382165 L 51 435.8076182313132 L 52 436.29788728112277 L 53 436.7786293605558 L 54 437.24971093323677 L 55 437.7110011462024 L 56 438.1623718662485 L 57 438.60369771552183 L 58 439.03485610634635 L 59 439.45572727527485 L 60 439.86619431635535 L 61 440.26614321360466 L 62 440.65546287267864 L 63 441.03404515173077 L 64 441.40178489145114 L 65 441.7585799442767 L 66 442.10433120276457 L 67 442.4389426271219 L 68 442.7623212718822 L 69 443.0743773117234 L 70 443.375024066419 L 71 443.66417802491446 L 72 443.9417588685252 L 73 444.20768949324605 L 74 444.461896031169 L 75 444.7043078710014 L 76 444.93485767767976 L 77 445.1534814110735 L 78 445.3601183437737 L 79 445.55471107796086 L 80 445.73720556134907 L 81 445.90755110219965 L 82 446.06570038340215 L 83 446.2116094756176 L 84 446.3452378494807 L 85 446.46654838685805 L 86 446.5755073911581 L 87 446.6720845966915 L 88 446.75625317707755 L 89 446.8279897526963 L 90 446.88727439718247 L 91 446.9340906429604 L 92 446.96842548581844 L 93 446.9902693885211 L 94 446.9996162834579 L 95 446.99646357432937 L 96 446.9808121368677 L 97 446.95266631859386 L 98 446.9120339376097 L 99 446.8589262804264 L 100 446.7933580988294 L 101 446.71534760578106 L 102 446.6249164703611 L 103 446.52208981174783 L 104 446.4068961922409 L 105 446.27936760932715 L 106 446.139539486793 L 107 445.98745066488453 L 108 445.8231433895188 L 109 445.64666330054905 L 110 445.4580594190875 L 111 445.2573841338885 L 112 445.0446931867965 L 113 444.82004565726254 L 114 444.58350394593367 L 115 444.3351337573198 L 116 444.0750040815431 L 117 443.8031871751741 L 118 443.5197585411613 L 119 443.2247969078584 L 120 442.91838420715567 L 121 442.60060555172214 L 122 442.27154921136315 L 123 441.9313065885019 L 124 441.57997219279025 L 125 441.21764361485697 L 126 440.8444214991993 L 127 440.4604095162275 L 128 440.06571433346755 L 129 439.6604455859324 L 130 439.2447158456682 L 131 438.8186405904853 L 132 438.38233817188154 L 133 437.9359297821678 L 134 437.4795394208042 L 135 437.01329385995643 L 136 436.53732260928246 L 137 436.051757879958 L 138 435.55673454795243 L 139 435.0523901165638 L 140 434.5388646782246 L 141 434.016300875588 L 142 433.48484386190574 L 143 432.9446412607088 L 144 432.3958431248018 L 145 431.8386018945826 L 146 431.27307235569884 L 147 430.69941159605264 L 148 430.1177789621665 L 149 429.528336014921 L 150 428.93124648467807 L 151 428.3266762258012 L 152 427.7147931705861 L 153 427.0957672826138 L 154 426.46977050953933 L 155 425.83697673533015 L 156 425.1975617319659 L 157 424.55170311061374 L 158 423.8995802722934 L 159 423.2413743580447 L 160 422.57726819861153 L 161 421.9074462636569 L 162 421.2320946105223 L 163 420.5514008325469 L 164 419.86555400695875 L 165 419.17474464235494 L 166 418.47916462578377 L 167 417.7790071694439 L 168 417.0744667570157 L 169 416.36573908963913 L 170 415.6530210315535 L 171 414.9365105554145 L 172 414.2164066873027 L 173 413.4929094514402 L 174 412.7662198146292 L 175 412.0365396304297 L 176 411.30407158308975 L 177 410.5690191312462 L 178 409.8315864514093 L 179 409.0919783812484 L 180 408.350400362694 L 181 407.60705838487183 L 182 406.86215892688494 L 183 406.11590890045966 L 184 405.36851559247174 L 185 404.6201866073676 L 186 403.8711298094981 L 187 403.1215532653795 L 188 402.3716651858987 L 189 401.6216738684783 L 190 400.8717876392174 L 191 400.12221479502455 L 192 399.37316354575887 L 193 398.62484195639564 L 194 397.87745788923115 L 195 397.1312189461451 L 196 396.38633241093453 L 197 395.6430051917363 L 198 394.90144376355386 L 199 394.1618541109046 L 200 393.42444167060313 L 201 392.689411274697 L 202 391.95696709356986 L 203 391.2273125792291 L 204 390.5006504087926 L 205 389.7771824281908 L 206 389.05710959609985 L 207 388.3406319281207 L 208 387.62794844122095 L 209 386.9192570984533 L 210 386.2147547539671 L 211 385.51463709832825 L 212 384.81909860416147 L 213 384.12833247213183 L 214 383.4425305772787 L 215 382.76188341571884 L 216 382.08658005173163 L 217 381.4168080652427 L 218 380.75275349971946 L 219 380.09460081049355 L 220 379.4425328135245 L 221 378.7967306346187 L 222 378.1573736591178 L 223 377.5246394820706 L 224 376.8987038589023 L 225 376.2797406565945 L 226 375.6679218053902 L 227 375.06341725103636 L 228 374.46639490757764 L 229 373.87702061071514 L 230 373.2954580717417 L 231 372.72186883206746 L 232 372.15641221834875 L 233 371.5992452982312 L 234 371.0505228367212 L 235 370.5103972531964 L 236 369.97901857906817 L 237 369.45653441610693 L 238 368.94308989544294 L 239 368.4388276372527 L 240 367.94388771114325 L 241 367.45840759724496 L 242 366.9825221480234 L 243 366.5163635508212 L 244 366.06006129114024 L 245 365.61374211667413 L 246 365.17753000210155 L 247 364.75154611464944 L 248 364.3359087804364 L 249 363.9307334516049 L 250 363.5361326742522 L 251 363.152216057168 L 252 362.77909024138853 L 253 362.4168588705745 L 254 362.06562256222196 L 255 361.72547887971376 L 256 361.3965223052189 L 257 361.07884421344863 L 258 360.77253284627454 L 259 360.47767328821794 L 260 360.1943474428157 L 261 359.9226340098698 L 262 359.66260846358665 L 263 359.41434303161276 L 264 359.1779066749718 L 265 358.95336506890914 L 266 358.74078058464937 L 267 358.54021227207124 L 268 358.3517158433052 L 269 358.1753436572584 L 270 358.01114470507065 L 271 357.8591645965061 L 272 357.7194455472845 L 273 357.5920263673544 L 274 357.47694245011303 L 275 357.3742257625754 L 276 357.2839048364941 L 277 357.20600476043455 L 278 357.1405471728059 L 279 357.08755025585043 L 280 357.04702873059324 L 281 357.01899385275294 L 282 357.0034534096155 L 283 357.0004117178705 L 284 357.009869622413 L 285 357.031824496108 L 286 357.0662702405206 L 287 357.11319728761003 L 288 357.17259260238717 L 289 357.2444396865353 L 290 357.32871858299313 L 291 357.4254058814979 L 292 357.53447472508844 L 293 357.65589481756507 L 294 357.78963243190503 L 295 357.935650419631 L 296 358.0939082211296 L 297 358.2643618769181 L 298 358.4469640398547 L 299 358.64166398829065 L 300 358.84840764015877 L 301 359.0671375679962 L 302 359.2977930148962 L 303 359.5403099113842 L 304 359.7946208932152 L 305 360.0606553200849 L 306 360.338339295252 L 307 360.6275956860646 L 308 360.928344145385 L 309 361.2405011339083 L 310 361.56397994336714 L 311 361.8986907206167 L 312 362.2445404925931 L 313 362.60143319213915 L 314 362.9692696846887 L 315 363.34794779580335 L 316 363.7373623395539 L 317 364.1374051477376 L 318 364.54796509992445 L 319 364.96892815432324 L 320 365.4001773794589 L 321 365.841592986653 L 322 366.2930523632973 L 323 366.7544301069124 L 324 367.2255980599806 L 325 367.7064253455444 L 326 368.19677840356076 L 327 368.6965210279998 L 328 369.20551440467915 L 329 369.7236171498226 L 330 370.25068534933234 L 331 370.7865725987642 L 332 371.3311300439947 L 333 371.8842064225682 L 334 372.4456481057137 L 335 373.0152991410181 L 336 373.5930012957455 L 337 374.1785941007899 L 338 374.7719148952485 L 339 375.3727988716046 L 340 375.9810791215061 L 341 376.59658668212825 L 342 377.2191505831063 L 343 377.84859789402645 L 344 378.4847537724607 L 345 379.1274415125334 L 346 379.7764825940046 L 347 380.43169673185855 L 348 381.09290192638093 L 349 381.7599145137137 L 350 382.4325492168715 L 351 383.1106191972063 L 352 383.79393610630575 L 353 384.482310138311 L 354 385.1755500826394 L 355 385.8734633770972 L 356 386.5758561613681 L 357 387.28253333086167 L 358 387.99329859090807 L 359 388.707954511283 L 360 389.42630258104833 L 361 390.14814326369253 L 362 390.8732760525562 L 363 391.60149952652733 L 364 392.33261140599006 L 365 393.0664086090122 L 366 393.80268730775566 L 367 394.541242985094 L 368 395.2818704914213 L 369 396.02436410163676 L 370 396.7685175722897 L 371 397.5141241988675 L 372 398.26097687321266 L 373 399.0088681410512 L 374 399.75759025961764 L 375 400.50693525535996 L 376 401.25669498170873 L 377 402.0066611768943 L 378 402.75662552179574 L 379 403.5063796978062 L 380 404.2557154446978 L 381 405.00442461847 L 382 405.7522992491666 L 383 406.49913159864343 L 384 407.24471421827224 L 385 407.98884000656375 L 386 408.7313022666949 L 387 409.47189476392305 L 388 410.21041178287203 L 389 410.94664818467413 L 390 411.6803994639517 L 391 412.41146180562293 L 392 413.13963214151596 L 393 413.86470820677505 L 394 414.5864885960443 L 395 415.3047728194122 L 396 416.019361358102 L 397 416.7300557198921 L 398 417.4366584942518 L 399 418.138973407176 L 400 418.8368053757049 L 401 419.52996056211197 L 402 420.2182464277469 L 403 420.90147178651716 L 404 421.5794468579939 L 405 422.2519833201278 L 406 422.9188943615593 L 407 423.57999473350964 L 408 424.23510080123737 L 409 424.8840305950472 L 410 425.52660386083556 L 411 426.1626421101605 L 412 426.79196866982016 L 413 427.4144087309279 L 414 428.029789397469 L 415 428.6379397343263 L 416 429.2386908147611 L 417 429.8318757673361 L 418 430.41732982226745 L 419 430.99489035719336 L 420 431.5643969423455 L 421 432.1256913851122 L 422 432.67861777397957 L 423 433.22302252183937 L 424 433.758754408651 L 425 434.28566462344617 L 426 434.8036068056644 L 427 435.3124370858077 L 428 435.81201412540327 L 429 436.3021991562635 L 430 436.7828560190317 L 431 437.2538512010034 L 432 437.7150538732119 L 433 438.1663359267694 L 434 438.60757200845177 L 435 439.03863955551776 L 436 439.4594188297539 L 437 439.869792950734 L 438 440.2696479282854 L 439 440.6588726941521 L 440 441.0373591328463 L 441 441.4050021116797 L 442 441.76169950996666 L 443 442.1073522473901 L 444 442.4418643115232 L 445 442.7651427844991 L 446 443.0770978688207 L 447 443.37764291230366 L 448 443.6666944321463 L 449 443.9441721381183 L 450 444.20999895486324 L 451 444.46410104330806 L 452 444.7064078211731 L 453 444.93685198257816 L 454 445.1553695167379 L 455 445.3618997257423 L 456 445.5563852414169 L 457 445.73877204125785 L 458 445.90900946343794 L 459 446.06705022087897 L 460 446.2128504143868 L 461 446.34636954484506 L 462 446.46757052446503 L 463 446.57641968708714 L 464 446.6728867975329 L 465 446.7569450600029 L 466 446.8285711255204 L 467 446.8877450984166 L 468 446.93445054185725 L 469 446.9686744824084 L 470 446.99040741363996 L 471 446.99964329876633 L 472 446.9963795723233 L 473 446.9806171408805 L 474 446.9523603827897 L 475 446.91161714696887 L 476 446.85839875072134 L 477 446.7927199765929 L 478 446.7145990682651 L 479 446.6240577254879 L 480 446.52112109805216 L 481 446.4058177788037 L 482 446.27817979570074 L 483 446.13824260291796 L 484 445.9860450709981 L 485 445.82162947605457 L 486 445.6450414880289 L 487 445.45633015800445 L 488 445.25554790458176 L 489 445.0427504993179 L 490 444.81799705123507 L 491 444.5813499904013 L 492 444.3328750505898 L 493 444.0726412510194 L 494 443.8007208771833 L 495 443.5171894607703 L 496 443.2221257586841 L 497 442.9156117311669 L 498 442.59773251903323 L 499 442.2685764200203 L 500 441.92823486426124 L 501 441.57680238888895 L 502 441.21437661177555 L 503 440.8410582044177 L 504 440.4569508639726 L 505 440.06216128445396 L 506 439.6567991270952 L 507 439.2409769898893 L 508 438.8148103763116 L 509 438.37841766323686 L 510 437.9319200680571 L 511 437.47544161501105 L 512 437.00910910073407 L 513 436.53305205903695 L 514 436.0474027249259 L 515 435.55229599787094 L 516 435.0478694043351 L 517 434.53426305957294 L 518 434.01161962871123 L 519 433.48008428712006 L 520 432.9398046800878 L 521 432.3909308818089 L 522 431.83361535369824 L 523 431.2680129020411 L 524 430.69428063499294 L 525 430.11257791893865 L 526 429.5230663342258 L 527 428.9259096302819 L 528 428.32127368012925 L 529 427.70932643431087 L 530 427.0902378742378 L 531 426.464179964974 L 532 425.83132660746844 L 533 425.1918535902515 L 534 424.5459385406048 L 535 423.8937608752224 L 536 423.2355017503734 L 537 422.571344011582 L 538 421.90147214283854 L 539 421.22607221535486 L 540 420.54533183587904 L 541 419.8594400945839 L 542 419.1685875125428 L 543 418.4729659888085 L 544 417.7727687471094 L 545 417.06819028217683 L 546 416.35942630572083 L 547 415.64667369206626 L 548 414.93013042346735 L 549 414.2099955351135 L 550 413.4864690598433 L 551 412.7597519725809 L 552 412.03004613451117 L 553 411.2975542370081 L 554 410.5624797453335 L 555 409.8250268421195 L 556 409.085400370653 L 557 408.343805777976 L 558 407.6004490578178 L 559 406.85553669337656 L 560 406.1092755999637 L 561 405.3618730675291 L 562 404.61353670308125 L 563 403.864474373021 L 564 403.1148941454011 L 565 402.36500423213187 L 566 401.6150129311451 L 567 400.86512856853534 L 568 400.11555944069266 L 569 399.366513756444 L 570 398.6181995792186 L 571 397.870824769254 L 572 397.1245969258586 L 573 396.3797233297461 L 574 395.63641088545944 L 575 394.8948660638978 L 576 394.1552948449659 L 577 393.417902660358 L 578 392.682894336495 L 579 391.9504740376297 L 580 391.2208452091358 L 581 390.49421052099615 L 582 389.7707718115076 L 583 389.0507300312154 L 584 388.3342851870955 L 585 387.62163628699767 L 586 386.91298128436756 L 587 386.20851702326036 L 588 385.5084391836632 L 589 384.8129422271414 L 590 384.1222193428217 L 591 383.43646239373084 L 592 382.7558618635006 L 593 382.0806068034579 L 594 381.41088478011056 L 595 380.74688182304783 L 596 380.08878237326593 L 597 379.4367692319361 L 598 378.79102350962734 L 599 378.1517245759993 L 600 377.51905000997834 L 601 376.89317555043147 L 602 376.2742750473509 L 603 375.66252041356336 L 604 375.05808157697817 L 605 374.4611264333855 L 606 373.8718207998203 L 607 373.2903283685025 L 608 372.71681066136864 L 609 372.1514269852051 L 610 371.5943343873977 L 611 371.0456876123081 L 612 370.50563905829057 L 613 369.97433873535977 L 614 369.4519342235226 L 615 368.9385706317842 L 616 368.43439055784154 L 617 367.9395340484732 L 618 367.4541385606388 L 619 366.9783389232972 L 620 366.5122672999549 L 621 366.056053151955 L 622 365.6098232025161 L 623 365.17370140153287 L 624 364.7478088911456 L 625 364.332263972091 L 626 363.92718207084135 L 627 363.5326757075423 L 628 363.148854464758 L 629 362.7758249570325 L 630 362.41369080127487 L 631 362.0625525879776 L 632 361.72250785327554 L 633 361.39365105185294 L 634 361.07607353070676 L 635 360.769863503773 L 636 360.4751060274237 L 637 360.1918829768402 L 638 359.9202730232711 L 639 359.66035161217917 L 640 359.4121909422851 L 641 359.17585994551274 L 642 358.95142426784156 L 643 358.73894625107215 L 644 358.5384849155097 L 645 358.35009594356944 L 646 358.17383166431017 L 647 358.00974103889826 L 648 357.8578696470079 L 649 357.71825967416027 L 650 357.5909499000056 L 651 357.4759756875517 L 652 357.37336897334035 L 653 357.2831582585768 L 654 357.205368601213 L 655 357.1400216089869 L 656 357.08713543342054 L 657 357.0467247647782 L 658 357.0188008279859 L 659 357.003371379513 L 660 357.00044070521835 L 661 357.01000961915923 L 662 357.0320754633655 L 663 357.06663210857795 L 664 357.1136699559506 L 665 357.1731759397172 L 666 357.2451335308205 L 667 357.32952274150335 L 668 357.426320130861 L 669 357.5354988113521 L 670 357.6570284562674 L 671 357.79087530815383 L 672 357.9370021881907 L 673 358.09536850651773 L 674 358.26593027350924 L 675 358.44864011199326 L 676 358.6434472704117 L 677 358.8502976369176 L 678 359.069133754406 L 679 359.2998948364734 L 680 359.5425167843032 L 681 359.7969322044698 L 682 360.0630704276591 L 683 360.34085752829816 L 684 360.6302163450896 L 685 360.9310665024449 L 686 361.24332443281037 L 687 361.56690339987983 L 688 361.9017135226875 L 689 362.24766180057424 L 690 362.6046521390207 L 691 362.97258537633945 L 692 363.35135931121914 L 693 363.7408687311135 L 694 364.1410054414659 L 695 364.55165829576305 L 696 364.97271322640813 L 697 365.40405327640553 L 698 365.8455586318482 L 699 366.29710665519855 L 700 366.75857191935347 L 701 367.22982624248465 L 702 367.7107387236435 L 703 368.2011757791221 L 704 368.7010011795584 L 705 369.21007608777734 L 706 369.72825909735553 L 707 370.2554062718999 L 708 370.7913711850295 L 709 371.3360049610478 L 710 371.8891563162969 L 711 372.4506716011793 L 712 373.02039484283756 L 713 373.59816778847886 L 714 374.18382994933353 L 715 374.7772186452336 L 716 375.3781690498014 L 717 375.98651423623295 L 718 376.6020852236661 L 719 377.2247110241178 L 720 377.8542186899804 L 721 378.49043336206114 L 722 379.1331783181529 L 723 379.7822750221231 L 724 380.43754317350533 L 725 381.0988007575821 L 726 381.76586409594296 L 727 382.4385478975054 L 728 383.11666530998315 L 729 383.8000279717887 L 730 384.4884460643543 L 731 385.1817283648587 L 732 385.87968229934273 L 733 386.58211399620143 L 734 387.2888283400355 L 735 387.9996290258493 L 736 388.7143186135782 L 737 389.4326985829322 L 738 390.15456938853896 L 739 390.8797305153719 L 740 391.60798053444745 L 741 392.3391171587762 L 742 393.0729372995528 L 743 393.8092371225674 L 744 394.54781210482605 L 745 395.2884570913603 L 746 396.0309663522142 L 747 396.7751336395894 L 748 397.5207522451356 L 749 398.2676150573677 L 750 399.015514619196 L 751 399.7642431855509 L 752 400.51359278108947 L 753 401.26335525796463 L 754 402.0133223536426 L 755 402.7632857487525 L 756 403.51303712495115 L 757 404.26236822278844 L 758 405.01107089955514 L 759 405.7589371870999 L 760 406.5057593495958 L 761 407.25132994124436 L 762 407.9954418638974 L 763 408.73788842458333 L 764 409.47846339292016 L 765 410.216961058401 L 766 410.9531762875339 L 767 411.6869045808222 L 768 412.41794212956927 L 769 413.1460858724896 L 770 413.8711335521146 L 771 414.59288377097283 L 772 415.31113604753347 L 773 416.0256908718934 L 774 416.7363497611962 L 775 417.4429153147641 L 776 418.1451912689312 L 777 418.84298255155903 L 778 419.53609533622273 L 779 420.2243370960497 L 780 420.9075166571988 L 781 421.58544425196266 L 782 422.2579315714794 L 783 422.92479181804 L 784 423.58583975697485 L 785 424.2408917681072 L 786 424.88976589675684 L 787 425.5322819042827 L 788 426.16826131814713 L 789 426.7975274814915 L 790 427.41990560220523 L 791 428.03522280147905 L 792 428.643308161825 L 793 429.24399277455325 L 794 429.83710978668904 L 795 430.42249444732073 L 796 430.99998415336205 L 797 431.56941849471895 L 798 432.1306392988471 L 799 432.68349067468716 L 800 433.22781905596753 L 801 433.7634732438599 L 802 434.2903044489787 L 803 434.8081663327099 L 804 435.31691504786016 L 805 435.81640927861315 L 806 436.30651027978325 L 807 436.7870819153547 L 808 437.2579906962967 L 809 437.7191058176423 L 810 438.170299194823 L 811 438.61144549924603 L 812 439.042422193108 L 813 439.4631095634318 L 814 439.87339075531946 L 815 440.27315180441144 L 816 440.66228166854233 L 817 441.04067225858523 L 818 441.40821846847604 L 819 441.7648182044086 L 820 442.1103724131936 L 821 442.44478510977285 L 822 442.7679634038808 L 823 443.07981752584715 L 824 443.3802608515321 L 825 443.66920992638825 L 826 443.94658448864146 L 827 444.2123074915859 L 828 444.46630512498473 L 829 444.7085068355731 L 830 444.9388453466554 L 831 445.1572566767929 L 832 445.36368015757614 L 833 445.5580584504766 L 834 445.7403375627739 L 835 445.91046686255333 L 836 446.06839909277 L 837 446.2140903843754 L 838 446.3475002685032 L 839 446.46859168771005 L 840 446.57733100626916 L 841 446.6736880195135 L 842 446.75763596222566 L 843 446.82915151607244 L 844 446.888214816082 L 845 446.93480945616193 L 846 446.9689224936563 L 847 446.99054445294064 L 848 446.9996693280542 L 849 446.9962945843681 L 850 446.98042115928956 L 851 446.95205346200106 L 852 446.9111993722363 L 853 446.8578702380907 L 854 446.79208087286986 L 855 446.7138495509743 L 856 446.62319800282387 L 857 446.5201514088212 L 858 446.4047383923576 L 859 446.27699101186226 L 860 446.13694475189715 L 861 445.9846385133007 L 862 445.8201146023821 L 863 445.64341871916986 L 864 445.4545999447175 L 865 445.25371072747055 L 866 445.0408068686977 L 867 444.81594750699065 L 868 444.5791951018374 L 869 444.3306154162727 L 870 444.0702774986107 L 871 443.7982536632658 L 872 443.51461947066537 L 873 443.2194537062613 L 874 442.9128383586458 L 875 442.5948585967772 L 876 442.26560274632266 L 877 441.92516226512345 L 878 441.5736317177909 L 879 441.21110874943884 L 880 440.8376940585609 L 881 440.45349136905895 L 882 440.058607401432 L 883 439.6531518431319 L 884 439.23723731809565 L 885 438.81097935546126 L 886 438.3744963574776 L 887 437.9279095666153 L 888 437.4713430318892 L 889 437.00492357440106 L 890 436.5287807521121 L 891 436.0430468238559 L 892 435.54785671260026 L 893 435.04334796797 L 894 434.52966072803895 L 895 434.0069376804041 L 896 433.4753240225509 L 897 432.9349674215217 L 898 432.3860179728978 L 899 431.8286281591074 L 900 431.26295280707023 L 901 430.6891490451914 L 902 430.10737625971524 L 903 429.5177960504523 L 904 428.9205721858922 L 905 428.3158705577124 L 906 427.7038591346995 L 907 427.0847079160911 L 908 426.45858888435583 L 909 425.8256759574209 L 910 425.1861449403632 L 911 424.54017347657515 L 912 423.88794099842096 L 913 423.22962867739517 L 914 422.5654193737985 L 915 421.89549758594427 L 916 421.22004939891053 L 917 420.53926243285065 L 918 419.85332579087753 L 919 419.16243000653697 L 920 418.4667669908819 L 921 417.766529979166 L 922 417.0619134771677 L 923 416.3531132071625 L 924 415.6403260535566 L 925 414.9237500081985 L 926 414.203584115382 L 927 413.48002841655784 L 928 412.75328389476766 L 929 412.02355241881685 L 930 411.29103668720086 L 931 410.55594017180186 L 932 409.81846706136974 L 933 409.0788222048042 L 934 408.3372110542541 L 935 407.59383960804814 L 936 406.848914353475 L 937 406.1026422094264 L 938 405.3552304689219 L 939 404.6068867415278 L 940 403.85781889569 L 941 403.1082350009935 L 942 402.3583432703672 L 943 401.6083520022476 L 944 400.8584695227203 L 945 400.1089041276522 L 946 399.3598640248333 L 947 398.61155727614266 L 948 397.86419173975435 L 949 397.11797501240073 L 950 396.37311437170786 L 951 395.62981671861985 L 952 394.88828851992764 L 953 394.1487357509184 L 954 393.4113638381615 L 955 392.676377602447 L 956 391.9439812018922 L 957 391.2143780752325 L 958 390.4877708853116 L 959 389.76436146278803 L 960 389.04435075007206 L 961 388.32793874550987 L 962 387.6153244478294 L 963 386.90670580086476 L 964 386.20227963857246 L 965 385.50224163035716 L 966 384.80678622671957 L 967 384.11610660524497 L 968 383.4303946169424 L 969 382.74984073295514 L 970 382.07463399165266 L 971 381.4049619461218 L 972 380.74101061206903 L 973 380.08296441615136 L 974 379.43100614474736 L 975 378.7853168931851 L 976 378.14607601543804 L 977 377.5134610743063 L 978 376.8876477920949 L 979 376.2688100018027 L 980 375.65711959883663 L 981 375.05274649326435 L 982 374.4558585626181 L 983 373.8666216052629 L 984 373.28519929434236 L 985 372.71175313231544 L 986 372.1464424060957 L 987 371.5894241428053 L 988 371.040853066158 L 989 370.500881553481 L 990 369.96965959338945 L 991 369.447334744123 L 992 368.9340520925589 L 993 368.42995421391134 L 994 367.93518113212735 L 995 367.44987028099274 L 996 366.9741564659566 L 997 366.5081718266867 L 998 366.0520458003642 L 999 365.60590508573034 L 1000 365.16987360789244 L 1001 364.7440724839022 L 1002 364.3286199891114 L 1003 363.9236315243196 L 1004 363.5292195837184 L 1005 363.1454937236442 L 1006 362.7725605321465 L 1007 362.41052359938016 L 1008 362.0594834888323 L 1009 361.7195377093874 L 1010 361.39078068824284 L 1011 361.0733037446794 L 1012 360.76719506469567 L 1013 360.4725396765122 L 1014 360.1894194269534 L 1015 359.91791295871246 L 1016 359.6580956885071 L 1017 359.4100397861306 L 1018 359.17381415440525 L 1019 358.9494844100432 L 1020 358.73711286541993 L 1021 358.5367585112656 L 1022 358.3484770002791 L 1023 358.17232063166966 L 1024 358.00833833662915 L 1025 357.85657566474066 L 1026 357.71707477132605 L 1027 357.5898744057366 L 1028 357.47500990058927 L 1029 357.3725131619525 L 1030 357.28241266048343 L 1031 357.2047334235199 L 1032 357.1394970281282 L 1033 357.0867215951098 L 1034 357.04642178396784 L 1035 357.0186087888352 L 1036 357.0032903353651 L 1037 357.00047067858486 L 1038 357.0101506017145 L 1039 357.0323274159486 L 1040 357.06699496120365 L 1041 357.11414360782885 L 1042 357.1737602592811 L 1043 357.24582835576274 L 1044 357.3303278788215 L 1045 357.427235356911 L 1046 357.5365238719104 L 1047 357.65816306660156 L 1048 357.7921191531015 L 1049 357.9383549222475 L 1050 358.0968297539329 L 1051 358.26749962839006 L 1052 358.4503171384179 L 1053 358.64523150255036 L 1054 358.85218857916163 L 1055 359.07113088150584 L 1056 359.3019975936844 L 1057 359.5447245875396 L 1058 359.79924444046713 L 1059 360.06548645414443 L 1060 360.34337667416867 L 1061 360.63283791059865 L 1062 360.9337897593967 L 1063 361.24614862476216 L 1064 361.5698277423521 L 1065 361.9047372033816 L 1066 362.25078397959834 L 1067 362.607871949123 L 1068 362.97590192314885 L 1069 363.354771673494 L 1070 363.74437596099733 L 1071 364.1446065647508 L 1072 364.5553523121601 L 1073 364.97649910982534 L 1074 365.407929975233 L 1075 365.8495250692502 L 1076 366.3011617294123 L 1077 366.76271450399554 L 1078 367.2340551868637 L 1079 367.7150528530801 L 1080 368.2055738952746 L 1081 368.70548206075614 L 1082 369.21463848935997 L 1083 369.7329017520185 L 1084 370.2601278900469 L 1085 370.7961704551301 L 1086 371.3408805500025 L 1087 371.89410686980665 L 1088 372.4556957441222 L 1089 373.0254911796506 L 1090 373.6033349035459 L 1091 374.1890664073778 L 1092 374.7825229917172 L 1093 375.38353981132883 L 1094 375.99194992096074 L 1095 376.6075843217165 L 1096 377.2302720079991 L 1097 377.8598400150106 L 1098 378.49611346679706 L 1099 379.13891562482434 L 1100 379.78806793707054 L 1101 380.4433900876232 L 1102 381.10470004676495 L 1103 381.7718141215373 L 1104 382.44454700676465 L 1105 383.12271183652683 L 1106 383.8061202360647 L 1107 384.4945823741063 L 1108 385.18790701559556 L 1109 385.8859015748125 L 1110 386.5883721688674 L 1111 387.2951236715567 L 1112 388.00595976756307 L 1113 388.7206830069858 L 1114 389.4390948601874 L 1115 390.1609957729393 L 1116 390.8861852218521 L 1117 391.61446177007474 L 1118 392.34562312324914 L 1119 393.0794661857007 L 1120 393.8157871168531 L 1121 394.55438138784854 L 1122 395.29504383836104 L 1123 396.0375687335835 L 1124 396.7817498213751 L 1125 397.5273803895518 L 1126 398.2742533233059 L 1127 399.0221611627361 L 1128 399.77089616047346 L 1129 400.5202503393887 L 1130 401.2700155503616 L 1131 402.01998353009907 L 1132 402.7699459589843 L 1133 403.5196945189428 L 1134 404.2690209513065 L 1135 405.01771711466256 L 1136 405.7655750426682 L 1137 406.5123870018191 L 1138 407.2579455491507 L 1139 408.0020435898606 L 1140 408.74447443483285 L 1141 409.4850318580512 L 1142 410.22351015388216 L 1143 410.95970419421394 L 1144 411.6934094854358 L 1145 412.42442222524016 L 1146 413.1525393592332 L 1147 413.8775586373369 L 1148 414.5992786699694 L 1149 415.3174989839844 L 1150 416.0320200783576 L 1151 416.74264347960116 L 1152 417.4491717968953 L 1153 418.1514087769171 L 1154 418.8491593583542 L 1155 419.54222972608704 L 1156 420.2304273650255 L 1157 420.91356111358397 L 1158 421.5914412167802 L 1159 422.26387937894435 L 1160 422.93068881602187 L 1161 423.5916843074568 L 1162 424.24668224764025 L 1163 424.8955006969118 L 1164 425.53795943209633 L 1165 426.1738799965652 L 1166 426.80308574980575 L 1167 427.4254019164881 L 1168 428.0406556350119 L 1169 428.64867600552253 L 1170 429.24929413738204 L 1171 429.8423431960825 L 1172 430.42765844958774 L 1173 431.00507731409056 L 1174 431.57443939917493 L 1175 432.1355865523671 L 1176 432.6883629030661 L 1177 433.23261490583974 L 1178 433.76819138307576 L 1179 434.2949435669743 L 1180 434.81272514087135 L 1181 435.321392279881 L 1182 435.8208036908467 L 1183 436.31082065158756 L 1184 436.7913070494322 L 1185 437.262129419026 L 1186 437.7231569794049 L 1187 438.1742616703222 L 1188 438.61531818781975 L 1189 439.04620401903423 L 1190 439.46679947622766 L 1191 439.876987730033 L 1192 440.27665484190607 L 1193 440.6656897957746 L 1194 441.04398452887506 L 1195 441.41143396176966 L 1196 441.76793602753406 L 1197 442.113391700109 L 1198 442.44770502180677 L 1199 442.77078312996537 L 1200 443.08253628274326 L 1201 443.38287788404693 L 1202 443.6717245075852 L 1203 443.9489959200419 L 1204 444.21461510336326 L 1205 444.4685082761506 L 1206 444.7106049141553 L 1207 444.94083776986764 L 1208 445.15914289119723 L 1209 445.3654596392362 L 1210 445.55973070510345 L 1211 445.741902125863 L 1212 445.9119232995139 L 1213 446.0697469990456 L 1214 446.21532938555634 L 1215 446.3486300204304 L 1216 446.46961187657075 L 1217 446.5782413486842 L 1218 446.6744882626158 L 1219 446.75832588373066 L 1220 446.82973092433963 L 1221 446.8886835501684 L 1222 446.9351673858667 L 1223 446.9691695195568 L 1224 446.9906805064201 L 1225 446.9996943713209 L 1226 446.99620861046577 L 1227 446.98022419209923 L 1228 446.95174555623464 L 1229 446.9107806134211 L 1230 446.85734074254594 L 1231 446.7914407876743 L 1232 446.7130990539252 L 1233 446.6223373023878 L 1234 446.51918074407615 L 1235 446.4036580329264 L 1236 446.2758012578377 L 1237 446.13564593375895 L 1238 445.9832309918233 L 1239 445.8185987685346 L 1240 445.64179499400745 L 1241 445.4528687792646 L 1242 445.25187260259526 L 1243 445.0388622949784 L 1244 444.8138970245742 L 1245 444.57703928028917 L 1246 444.3283548544181 L 1247 444.06791282436905 L 1248 443.7957855334758 L 1249 443.5120485709028 L 1250 443.2167807506484 L 1251 442.9100640896531 L 1252 442.5919837850172 L 1253 442.2626281903356 L 1254 441.92208879115583 L 1255 441.57046017956554 L 1256 441.2078400279184 L 1257 440.8343290617025 L 1258 440.4500310315624 L 1259 440.05505268447973 L 1260 439.6495037341225 L 1261 439.23349683036923 L 1262 438.80714752801816 L 1263 438.37057425468976 L 1264 437.9238982779305 L 1265 437.46724367152854 L 1266 437.00073728104917 L 1267 436.5245086886015 L 1268 436.03869017684343 L 1269 435.54341669223766 L 1270 435.03882580756755 L 1271 434.52505768372333 L 1272 434.0022550307692 L 1273 433.4705630683026 L 1274 432.9301294851166 L 1275 432.38110439817603 L 1276 431.8236403109193 L 1277 431.25789207089707 L 1278 430.68401682676074 L 1279 430.10217398461026 L 1280 429.5125251637161 L 1281 428.9152341516257 L 1282 428.310466858669 L 1283 427.69839127187174 L 1284 427.07917740829475 L 1285 426.4529972678073 L 1286 425.82002478531126 L 1287 425.18043578242606 L 1288 424.534407918651 L 1289 423.88212064201656 L 1290 423.22375513923885 L 1291 422.55949428539077 L 1292 421.8895225931049 L 1293 421.2140261613215 L 1294 420.5331926235947 L 1295 419.8472110959738 L 1296 419.1562721244723 L 1297 418.46056763213977 L 1298 417.7602908657505 L 1299 417.05563634212587 L 1300 416.34679979410237 L 1301 415.63397811616363 L 1302 414.91736930974776 L 1303 414.1971724282488 L 1304 413.4735875217249 L 1305 412.74681558133125 L 1306 412.017058483489 L 1307 411.2845189338107 L 1308 410.5494004107947 L 1309 409.8119071093037 L 1310 409.07224388384617 L 1311 408.33061619167285 L 1312 407.58723003570776 L 1313 406.8422919073252 L 1314 406.0960087289931 L 1315 405.3485877967957 L 1316 404.60023672285286 L 1317 403.85116337765095 L 1318 403.1015758323026 L 1319 402.3516823007505 L 1320 401.60169108193185 L 1321 400.8518105019182 L 1322 400.1022488560488 L 1323 399.3532143510726 L 1324 398.60491504731345 L 1325 397.8575588008775 L 1326 397.11135320591643 L 1327 396.3665055369644 L 1328 395.6232226913622 L 1329 394.88171113178754 L 1330 394.1421768289057 L 1331 393.40482520415696 L 1332 392.6698610726959 L 1333 391.9374885864997 L 1334 391.2079111776609 L 1335 390.48133150188 L 1336 389.7579513821727 L 1337 389.0379717528095 L 1338 388.3215926035029 L 1339 387.6090129238545 L 1340 386.90043064808236 L 1341 386.19604260004013 L 1342 385.49604443854554 L 1343 384.8006306030312 L 1344 384.10999425953554 L 1345 383.4243272470463 L 1346 382.743820024214 L 1347 382.06866161644706 L 1348 381.39903956340623 L 1349 380.73513986691165 L 1350 380.0771469392771 L 1351 379.4252435520847 L 1352 378.77961078541693 L 1353 378.14042797755775 L 1354 377.5078726751771 L 1355 376.8821205840138 L 1356 376.2633455200696 L 1357 375.6517193613282 L 1358 375.0474120000119 L 1359 374.4505912953909 L 1360 373.86142302715666 L 1361 373.2800708493734 L 1362 372.70669624501886 L 1363 372.1414584811298 L 1364 371.5845145645615 L 1365 371.03601919837666 L 1366 370.49612473887214 L 1367 369.96498115325966 L 1368 369.44273597800895 L 1369 368.92953427786625 L 1370 368.42551860555943 L 1371 367.93082896220096 L 1372 367.44560275840007 L 1373 366.9699747760933 L 1374 366.50407713110627 L 1375 366.0480392364557 L 1376 365.60198776640243 L 1377 365.1660466212644 L 1378 364.7403368930011 L 1379 364.32497683157726 L 1380 363.9200818121173 L 1381 363.5257643028564 L 1382 363.1421338339004 L 1383 362.7692969668019 L 1384 362.40735726495996 L 1385 362.05641526485334 L 1386 361.71656844811434 L 1387 361.3879112144514 L 1388 361.07053485542724 L 1389 360.7645275291009 L 1390 360.4699742355397 L 1391 360.1869567932092 L 1392 359.91555381624573 L 1393 359.65584069261996 L 1394 359.40788956319625 L 1395 359.1717693016941 L 1396 358.9475454955567 L 1397 358.73528042773296 L 1398 358.5350330593768 L 1399 358.3468590134697 L 1400 358.17081055936995 L 1401 358.0069365982939 L 1402 357.8552826497327 L 1403 357.7158908388079 L 1404 357.5887998845708 L 1405 357.47404508924694 L 1406 357.3716583284306 L 1407 357.2816680422303 L 1408 357.2040992273691 L 1409 357.1389734302412 L 1410 357.08630874092717 L 1411 357.04611978816865 L 1412 357.0184177353052 L 1413 357.0032102771735 L 1414 357.00050163796953 L 1415 357.01029257007576 L 1416 357.03258035385176 L 1417 357.06735879838976 L 1418 357.1146182432344 L 1419 357.17434556106593 L 1420 357.2465241613469 L 1421 357.33113399493004 L 1422 357.42815155962796 L 1423 357.53754990674094 L 1424 357.65929864854263 L 1425 357.79336396672096 L 1426 357.9397086217718 L 1427 358.098291963343 L 1428 358.26906994152614 L 1429 358.451995119092 L 1430 358.64701668466745 L 1431 358.85408046684944 L 1432 359.073128949252 L 1433 359.304101286483 L 1434 359.546933321045 L 1435 359.80155760115656 L 1436 360.0679033994881 L 1437 360.3458967328083 L 1438 360.63546038253423 L 1439 360.93651391618073 L 1440 361.24897370970194 L 1441 361.5727529707198 L 1442 361.9077617626328 L 1443 362.2539070295971 L 1444 362.6110926223754 L 1445 362.97921932504414 L 1446 363.3581848825532 L 1447 363.74788402912856 L 1448 364.14820851751324 L 1449 364.5590471490345 L 1450 364.98028580449204 L 1451 365.4118074758566 L 1452 365.85349229877204 L 1453 366.30521758584973 L 1454 366.766857860748 L 1455 367.2382848930253 L 1456 367.7193677337596 L 1457 368.2099727519219 L 1458 368.7099636714948 L 1459 369.2192016093269 L 1460 369.73754511370976 L 1461 370.26485020366977 L 1462 370.80097040896106 L 1463 371.3457568107518 L 1464 371.8990580829889 L 1465 372.4607205344323 L 1466 373.03058815134574 L 1467 373.6085026408332 L 1468 374.19430347480807 L 1469 374.7878279345833 L 1470 375.3889111560694 L 1471 375.99738617557006 L 1472 376.6130839761591 L 1473 377.2358335346283 L 1474 377.86546186899363 L 1475 378.50179408654407 L 1476 379.144653432422 L 1477 379.79386133872026 L 1478 380.44923747408376 L 1479 381.11059979380013 L 1480 381.7777645903666 L 1481 382.4505465445181 L 1482 383.1287587767046 L 1483 383.81221289900026 L 1484 384.50071906743256 L 1485 385.1940860347148 L 1486 385.89212120337015 L 1487 386.59463067922917 L 1488 387.3014193252875 L 1489 388.01229081591055 L 1490 388.72704769136624 L 1491 389.44549141267413 L 1492 390.167422416753 L 1493 390.89264017185513 L 1494 391.6209432332672 L 1495 392.3521292992663 L 1496 393.08599526731325 L 1497 393.822337290469 L 1498 394.5609508340174 L 1499 395.30163073227914 L 1500 396.04417124560024 L 1501 396.78836611750165 L 1502 397.534008631971 L 1503 398.2808916708818 L 1504 399.0288077715257 L 1505 399.7775491842395 L 1506 400.526907930112 L 1507 401.27667585875395 L 1508 402.0266447061175 L 1509 402.7766061523452 L 1510 403.52635187963534 L 1511 404.27567363010655 L 1512 405.02436326364636 L 1513 405.7722128157262 L 1514 406.5190145551682 L 1515 407.2645610418464 L 1516 408.00864518430836 L 1517 408.75106029729926 L 1518 409.49160015917215 L 1519 410.2300590691717 L 1520 410.96623190457115 L 1521 411.69991417765 L 1522 412.43090209249397 L 1523 413.15899260160506 L 1524 413.8839834623011 L 1525 414.6056732928938 L 1526 415.32386162862593 L 1527 416.0383489773556 L 1528 416.74893687496905 L 1529 417.4554279405083 L 1530 418.1576259309976 L 1531 418.85533579595483 L 1532 419.5483637315706 L 1533 420.23651723454094 L 1534 420.9196051555399 L 1535 421.59743775231505 L 1536 422.2698267423925 L 1537 422.936585355376 L 1538 423.5975283848271 L 1539 424.2524722397097" stroke-linecap="round" stroke-linejoin="round" stroke-miterlimit="10" stroke-width="18"/></g></svg>