<?xml version="1.0" encoding="UTF-8"?>
<svg id="Layer_1" data-name="Layer 1" xmlns="http://www.w3.org/2000/svg" viewBox="0 0 242.4 100.66">
  <defs>
    <style>
      .cls-1 {
        fill: #fff;
      }

      .cls-2 {
        letter-spacing: 0em;
      }

      .cls-3 {
        letter-spacing: 0em;
      }

      .cls-4 {
        stroke: #b9b9b9;
        stroke-width: .75px;
      }

      .cls-4, .cls-5, .cls-6 {
        fill: none;
        stroke-linecap: round;
        stroke-linejoin: round;
      }

      .cls-7 {
        letter-spacing: 0em;
      }

      .cls-8 {
        letter-spacing: -.08em;
      }

      .cls-9 {
        fill: #231f20;
        font-family: MyriadPro-Regular, 'Myriad Pro';
        font-size: 1.55px;
      }

      .cls-10 {
        letter-spacing: -.01em;
      }

      .cls-5 {
        stroke-width: 1.43px;
      }

      .cls-5, .cls-6 {
        stroke: #4b95d1;
      }

      .cls-11 {
        fill: #5e829b;
      }

      .cls-12 {
        fill: #4b95d1;
      }

      .cls-13 {
        letter-spacing: 0em;
      }

      .cls-14 {
        letter-spacing: -.01em;
      }

      .cls-15 {
        fill: #9dbace;
      }

      .cls-16 {
        fill: #e7e4e7;
      }

      .cls-6 {
        stroke-width: .66px;
      }

      .cls-17 {
        letter-spacing: -.01em;
      }

      .cls-18 {
        fill: #e42626;
      }

      .cls-19 {
        fill: #9cbace;
      }
    </style>
  </defs>
  <g>
    <path class="cls-19" d="m5.29,17.75h38.31c2.52,0,4.57,2.05,4.57,4.57v73.05c0,2.52-2.05,4.57-4.57,4.57H5.29c-2.52,0-4.57-2.05-4.57-4.57V22.33c0-2.52,2.05-4.57,4.57-4.57Z"/>
    <path class="cls-1" d="m44.67,17.75H4.82c-.05.24-.08.49-.08.75v75.19c0,1.93,1.57,3.5,3.5,3.5h39.85c.05-.24.08-.49.08-.75V21.25c0-1.93-1.57-3.5-3.5-3.5Z"/>
    <rect class="cls-6" x="8.94" y="24.37" width="35.02" height="60.57"/>
    <path class="cls-6" d="m30.37,89.33c.28.57.44,1.22.44,1.9,0,2.4-1.95,4.35-4.35,4.35s-4.35-1.95-4.35-4.35,1.95-4.35,4.35-4.35"/>
    <path class="cls-6" d="m28.89,87.62c.22.15.42.32.61.5"/>
    <path class="cls-5" d="m48.17,54.65v41.79c0,1.93-1.57,3.5-3.5,3.5H4.21c-1.93,0-3.5-1.57-3.5-3.5V21.25c0-1.93,1.57-3.5,3.5-3.5h40.46c1.93,0,3.5,1.57,3.5,3.5v14.57"/>
    <line class="cls-5" x1="48.17" y1="46.15" x2="48.17" y2="48.21"/>
    <line class="cls-6" x1="8.94" y1="32.25" x2="43.96" y2="32.25"/>
    <line class="cls-6" x1="33.31" y1="24.37" x2="33.31" y2="32.25"/>
    <path class="cls-6" d="m40.75,28.23c0,1.16-.94,2.11-2.1,2.11s-2.11-.94-2.11-2.11.94-2.11,2.11-2.11,2.1.94,2.1,2.11Z"/>
    <path class="cls-15" d="m24.15,30.01h-12.04c-.34,0-.62-.28-.62-.62h0c0-.34.28-.62.62-.62h12.04c.34,0,.62.28.62.62h0c0,.34-.28.62-.62.62Z"/>
    <g>
      <path class="cls-12" d="m39.13,42.71c0,.59-.48,1.06-1.06,1.06s-1.06-.48-1.06-1.06h2.13Z"/>
      <path class="cls-12" d="m41.75,41.99c0,.29-.23.52-.52.52h-6.33c-.29,0-.52-.23-.52-.52,0-.1.03-.19.08-.27.05-.08.12-.15.21-.19.19-.09.34-.24.45-.41.11-.17.17-.37.17-.58v-2.04c0-1.31.91-2.41,2.13-2.7,0-.03,0-.05,0-.08,0-.36.3-.66.66-.66s.66.3.66.66c0,.03,0,.05,0,.08.08.02.17.04.25.07-.11.23-.17.49-.17.75,0,.99.81,1.8,1.8,1.8.08,0,.17,0,.25-.02,0,.03,0,.06,0,.1v2.04c0,.42.24.8.61.99.09.04.16.11.21.19.05.08.08.18.08.27Z"/>
      <g>
        <circle class="cls-18" cx="40.6" cy="36.61" r="1.61"/>
        <polygon class="cls-1" points="40.44 37.41 40.44 36.18 40.24 36.29 40.11 36.02 40.5 35.81 40.77 35.81 40.77 37.41 40.44 37.41"/>
      </g>
    </g>
    <rect class="cls-16" x="16.11" y="51.12" width="22.19" height="14.34" rx="5" ry="5"/>
    <g>
      <path class="cls-12" d="m23.82,55.25h-.37l-.21-.54s-.04-.07-.08-.09c-.03-.02-.08-.02-.13-.02h-.23v.65h-.35v-1.61h.72c.19,0,.33.04.43.12.1.08.14.2.14.35,0,.11-.03.2-.08.28-.06.08-.14.13-.24.17.1.02.16.09.21.2l.19.5Zm-.69-.92c.1,0,.18-.02.22-.05.05-.03.07-.09.07-.16s-.02-.13-.07-.16c-.05-.03-.12-.05-.22-.05h-.32v.42h.32Z"/>
      <path class="cls-12" d="m25.07,54.71h-.76c0,.11.03.19.08.23.05.05.12.07.22.07.06,0,.12,0,.18-.03s.11-.05.16-.09l.09.23c-.05.04-.12.08-.2.1-.08.02-.16.04-.24.04-.19,0-.34-.05-.45-.16-.11-.11-.17-.25-.17-.44,0-.12.02-.22.07-.31.05-.09.11-.16.2-.21.09-.05.18-.08.29-.08.16,0,.29.05.38.16.09.1.14.25.14.42v.05Zm-.67-.33s-.07.09-.08.17h.45c-.02-.15-.09-.22-.22-.22-.06,0-.12.02-.16.06Z"/>
      <path class="cls-12" d="m26.98,54.19c.06.08.1.2.1.36v.69h-.34v-.68c0-.08-.01-.14-.04-.17-.03-.04-.07-.05-.13-.05-.07,0-.12.02-.16.07-.04.05-.06.12-.06.2v.63h-.34v-.68c0-.08-.01-.14-.04-.17-.03-.04-.07-.05-.13-.05-.07,0-.12.02-.16.07-.04.05-.06.12-.06.2v.63h-.34v-.82c0-.12,0-.23-.02-.33h.32l.02.17c.03-.06.08-.11.15-.15.06-.03.13-.05.22-.05.17,0,.28.07.34.21.04-.06.09-.12.16-.16.07-.04.14-.06.22-.06.13,0,.23.04.29.12Z"/>
      <path class="cls-12" d="m27.7,53.57v.32h-.36v-.32h.36Zm-.35.54h.34v1.15h-.34v-1.15Z"/>
      <path class="cls-12" d="m29.08,54.56v.69h-.34v-.68c0-.08-.01-.14-.04-.18-.03-.04-.08-.06-.14-.06-.08,0-.14.02-.18.07-.05.05-.07.11-.07.19v.64h-.34v-.82c0-.12,0-.23-.02-.33h.32l.02.18c.04-.07.09-.12.16-.16.07-.04.14-.05.22-.05.27,0,.41.16.41.48Z"/>
      <path class="cls-12" d="m30.5,53.59v1.67h-.34v-.17c-.03.06-.08.1-.15.14-.06.03-.14.05-.22.05-.1,0-.19-.03-.26-.08-.08-.05-.14-.12-.18-.21-.04-.09-.06-.2-.06-.31s.02-.22.06-.31c.04-.09.1-.16.18-.21.08-.05.16-.07.26-.07.08,0,.15.02.21.05.06.03.11.08.15.13v-.67h.34Zm-.41,1.34c.05-.06.07-.14.07-.25s-.02-.19-.07-.25c-.05-.06-.11-.09-.19-.09s-.15.03-.2.09c-.05.06-.07.14-.07.24s.02.19.07.25c.05.06.11.09.2.09s.15-.03.19-.09Z"/>
      <path class="cls-12" d="m31.81,54.71h-.76c0,.11.03.19.08.23.05.05.12.07.22.07.06,0,.12,0,.18-.03s.11-.05.16-.09l.09.23c-.05.04-.12.08-.2.1-.08.02-.16.04-.24.04-.19,0-.34-.05-.45-.16-.11-.11-.17-.25-.17-.44,0-.12.02-.22.07-.31.05-.09.11-.16.2-.21.09-.05.18-.08.29-.08.16,0,.29.05.38.16.09.1.14.25.14.42v.05Zm-.67-.33s-.07.09-.08.17h.45c-.02-.15-.09-.22-.22-.22-.06,0-.12.02-.16.06Z"/>
      <path class="cls-12" d="m32.81,54.1v.31c-.06-.03-.11-.04-.17-.04-.09,0-.16.02-.21.07-.05.05-.07.12-.07.2v.6h-.34v-.82c0-.12,0-.23-.02-.33h.32l.02.2c.03-.07.07-.13.13-.17s.13-.06.21-.06c.05,0,.09,0,.12.02Z"/>
    </g>
    <line class="cls-4" x1="16.7" y1="61.44" x2="37.7" y2="61.44"/>
    <g>
      <path class="cls-11" d="m25.18,64.08c-.1-.06-.18-.14-.23-.25-.05-.11-.08-.24-.08-.39s.03-.28.08-.39c.05-.11.13-.19.23-.25.1-.06.22-.09.35-.09s.25.03.35.09c.1.06.18.14.23.25.05.11.08.24.08.39s-.03.28-.08.39c-.05.11-.13.19-.23.25-.1.06-.22.09-.35.09s-.25-.03-.35-.09Zm.68-.23c.08-.1.12-.24.12-.42s-.04-.32-.12-.41c-.08-.1-.19-.15-.33-.15s-.25.05-.33.15c-.08.1-.12.23-.12.41s.04.32.12.42c.08.1.19.15.33.15s.25-.05.33-.15Z"/>
      <path class="cls-11" d="m27.14,64.16l-.48-.48v.48h-.2v-1.47h.2v.92l.45-.45h.25l-.48.48.52.52h-.26Z"/>
      <path class="cls-11" d="m28.43,63.15v1.01h-.2v-.17c-.03.06-.07.11-.13.14-.06.03-.13.05-.2.05-.09,0-.17-.02-.24-.06-.07-.04-.12-.1-.16-.18-.04-.08-.06-.17-.06-.27s.02-.2.06-.28c.04-.08.09-.14.16-.19.07-.04.15-.07.23-.07.08,0,.14.02.2.05.06.03.1.08.13.14v-.16h.2Zm-.28.77c.05-.06.08-.15.08-.27s-.02-.21-.08-.27-.12-.09-.21-.09-.16.03-.21.1c-.05.06-.08.15-.08.27s.03.2.08.26c.05.06.12.09.22.09s.16-.03.21-.1Z"/>
      <path class="cls-11" d="m29.64,63.15l-.47,1.09c-.05.12-.12.21-.2.26-.08.06-.17.09-.29.11l-.04-.16c.09-.02.17-.05.22-.08.05-.03.09-.09.12-.15l.04-.08-.42-.99h.21l.32.78.32-.78h.2Z"/>
    </g>
    <text class="cls-9" transform="translate(19.15 58.12)"><tspan class="cls-8" x="0" y="0">Y</tspan><tspan x=".72" y="0">ou h</tspan><tspan class="cls-3" x="3.61" y="0">av</tspan><tspan x="5.08" y="0">e an appoi</tspan><tspan class="cls-13" x="11.84" y="0">n</tspan><tspan class="cls-2" x="12.7" y="0">tme</tspan><tspan class="cls-13" x="15.28" y="0">n</tspan><tspan x="16.13" y="0">t </tspan><tspan x="0" y="1.86">set </tspan><tspan class="cls-10" x="2.23" y="1.86">f</tspan><tspan class="cls-2" x="2.66" y="1.86">or </tspan><tspan class="cls-7" x="4.35" y="1.86">t</tspan><tspan class="cls-2" x="4.85" y="1.86">ommo</tspan><tspan class="cls-17" x="9.14" y="1.86">ro</tspan><tspan x="10.47" y="1.86">w </tspan><tspan class="cls-13" x="11.94" y="1.86">a</tspan><tspan x="12.68" y="1.86">t 3</tspan><tspan class="cls-14" x="14.32" y="1.86">P</tspan><tspan x="15.13" y="1.86">M</tspan></text>
  </g>
  <g>
    <path class="cls-19" d="m127.97,14.23h0c0-7.47-6.05-13.52-13.51-13.52-5.62,0-10.43,3.43-12.47,8.31-.57-.2-1.19-.32-1.83-.32-3.03,0-5.49,2.46-5.49,5.49,0,.01,0,.02,0,.03h-3.37c-4.53,0-8.21,3.68-8.21,8.21h0c0,4.53,3.68,8.21,8.21,8.21h36.58c4.53,0,8.21-3.68,8.21-8.21h0c0-4.51-3.63-8.16-8.13-8.21Z"/>
    <path class="cls-1" d="m136.1,22.43h0c0-4.51-3.63-8.16-8.13-8.21h0c0-6.36-4.38-11.68-10.29-13.13-4.19,1.02-7.62,4-9.26,7.92-.57-.2-1.19-.32-1.83-.32-3.03,0-5.49,2.46-5.49,5.49,0,.01,0,.02,0,.03h-3.37c-4.53,0-8.21,3.68-8.21,8.21h0c0,4.53,3.68,8.21,8.21,8.21h30.14c4.53,0,8.21-3.68,8.21-8.21Z"/>
    <path class="cls-5" d="m114.46.71c-5.62,0-10.43,3.43-12.47,8.31-.57-.2-1.19-.32-1.83-.32-3.03,0-5.49,2.46-5.49,5.49,0,.01,0,.02,0,.03h-3.37c-4.53,0-8.21,3.68-8.21,8.21h0c0,4.53,3.68,8.21,8.21,8.21h36.58c4.53,0,8.21-3.68,8.21-8.21h0c0-4.51-3.63-8.16-8.13-8.21h0c0-3.43-1.27-6.56-3.38-8.94"/>
    <path class="cls-5" d="m120.19,1.99c-.43-.2-.88-.39-1.34-.54"/>
    <g>
      <path class="cls-19" d="m102.93,28.41l6.16,8.56c.25.35.76.35,1.01,0l6.16-8.56c.3-.41,0-.99-.51-.99h-2.62c-.34,0-.62-.28-.62-.62v-7.7c0-.34-.28-.62-.62-.62h-4.59c-.34,0-.62.28-.62.62v7.7c0,.34-.28.62-.62.62h-2.62c-.51,0-.8.58-.51.99Z"/>
      <path class="cls-5" d="m112.52,19.1c0-.34-.28-.62-.62-.62h-4.59c-.34,0-.62.28-.62.62v7.7c0,.34-.28.62-.62.62h-2.62c-.51,0-.8.58-.51.99l6.16,8.56c.25.35.76.35,1.01,0l6.16-8.56c.3-.41,0-.99-.51-.99h-2.62c-.34,0-.62-.28-.62-.62v-4.65"/>
    </g>
  </g>
  <line class="cls-5" x1="109.6" y1="37.03" x2="109.6" y2="47.52"/>
  <line class="cls-5" x1="48.94" y1="47.52" x2="168.73" y2="47.52"/>
  <path class="cls-1" d="m112.01,47.52c0,1.37-1.11,2.48-2.48,2.48s-2.48-1.11-2.48-2.48,1.11-2.48,2.48-2.48,2.48,1.11,2.48,2.48Z"/>
  <path class="cls-5" d="m112.01,47.52c0,1.37-1.11,2.48-2.48,2.48s-2.48-1.11-2.48-2.48,1.11-2.48,2.48-2.48,2.48,1.11,2.48,2.48Z"/>
  <rect class="cls-1" x="198.59" y="68.91" width="13.23" height="14.47"/>
  <polygon class="cls-5" points="211.83 75.34 211.83 68.91 198.59 68.91 198.59 83.38 211.83 83.38 211.83 79.92 211.83 75.34"/>
  <rect class="cls-19" x="168.73" y="21.07" width="72.95" height="50.21" rx="4.12" ry="4.12"/>
  <path class="cls-19" d="m168.73,65.46v4c0,1.01,1.41,1.82,3.15,1.82h66.66c1.74,0,3.15-.81,3.15-1.82v-4h-72.95Z"/>
  <rect class="cls-1" x="174.68" y="26.58" width="61.05" height="38.03"/>
  <path class="cls-5" d="m225.47,21.07h13.07c1.74,0,3.15,1.41,3.15,3.15v43.91c0,1.74-1.41,3.15-3.15,3.15h-66.66c-1.74,0-3.15-1.41-3.15-3.15V24.22c0-1.74,1.41-3.15,3.15-3.15h50.12"/>
  <rect class="cls-19" x="184.14" y="82.15" width="42.14" height="4.56"/>
  <polygon class="cls-5" points="194.37 82.15 226.28 82.15 226.28 86.71 184.14 86.71 184.14 82.15 186.65 82.15 194.37 82.15"/>
  <g id="file">
    <path class="cls-1" d="m200.67,36.83l-.23-.44c-.21-.4-.63-.65-1.08-.65h-3.06c-.61,0-1.11.5-1.11,1.11v10.8h20.14v-9.11c0-.55-.44-.99-.99-.99h-12.49c-.49,0-.95-.27-1.18-.71Z"/>
    <path class="cls-5" d="m200.67,36.83l-.23-.44c-.21-.4-.63-.65-1.08-.65h-3.06c-.61,0-1.11.5-1.11,1.11v10.8h20.14v-9.11c0-.55-.44-.99-.99-.99h-12.49c-.49,0-.95-.27-1.18-.71Z"/>
    <rect class="cls-19" x="195.19" y="40.12" width="20.14" height="11.95" rx="2.29" ry="2.29"/>
    <path class="cls-5" d="m205.73,40.12h8.96c.36,0,.64.27.64.6v10.75c0,.33-.29.6-.64.6h-18.85c-.36,0-.64-.27-.64-.6v-10.75c0-.33.29-.6.64-.6h4.93"/>
    <line class="cls-5" x1="202.95" y1="40.22" x2="203.65" y2="40.22"/>
  </g>
</svg>