<svg width="395" height="395" viewBox="0 0 395 395" fill="none" xmlns="http://www.w3.org/2000/svg">
<path d="M94.2837 233.13C90.7755 236.633 88.0107 240.809 86.1551 245.407C82.5487 254.374 82.5487 264.389 86.1551 273.357C88.0109 277.958 90.774 282.138 94.2797 285.648C97.7854 289.158 101.962 291.927 106.561 293.789C115.528 297.395 125.543 297.395 134.51 293.789C139.107 291.934 143.28 289.169 146.781 285.66L148.519 283.928L149.076 284.486L185.692 321.101C189.359 324.769 194.333 326.83 199.52 326.831C204.707 326.832 209.682 324.772 213.35 321.105C217.018 317.437 219.079 312.463 219.08 307.276C219.08 302.089 217.02 297.115 213.353 293.447L176.18 256.274L183.067 249.38C183.275 249.178 183.46 248.953 183.618 248.709C184.109 247.936 184.322 247.019 184.222 246.109C184.122 245.198 183.715 244.349 183.067 243.702L180.604 241.238L137.813 198.447L136.262 196.897C135.507 196.143 134.484 195.719 133.416 195.719C132.349 195.719 131.326 196.143 130.57 196.897L129.161 198.307L100.298 227.169L97.5392 229.928L94.3441 233.123" stroke="white" stroke-width="3" stroke-linecap="round" stroke-linejoin="round"/>
<path d="M133.813 196.125L170.455 99.5284C168.118 93.981 168.067 87.7349 170.314 82.1503C171.448 79.3459 173.135 76.7983 175.274 74.6592C177.413 72.5202 179.961 70.8333 182.765 69.699C188.231 67.5001 194.335 67.5001 199.801 69.699C202.615 70.8267 205.17 72.5143 207.312 74.6594L304.345 171.692C306.497 173.828 308.196 176.375 309.339 179.183C311.538 184.649 311.538 190.753 309.339 196.219C308.205 199.023 306.518 201.571 304.379 203.71C302.24 205.849 299.692 207.536 296.888 208.67C291.303 210.917 285.057 210.866 279.51 208.529L184.195 246.467" stroke="white" stroke-width="3" stroke-linecap="round" stroke-linejoin="round"/>
<path d="M170.455 99.5284L279.476 208.529" stroke="white" stroke-width="3" stroke-linecap="round" stroke-linejoin="round"/>
</svg>
